<svg width="60" height="60" viewBox="0 0 60 60" fill="none" xmlns="http://www.w3.org/2000/svg">
<g id="Icon">
<mask id="mask0_1_134" style="mask-type:alpha" maskUnits="userSpaceOnUse" x="0" y="0" width="60" height="60">
<path id="Bounding box" d="M0 0H60V60H0V0Z" fill="white"/>
</mask>
<g mask="url(#mask0_1_134)">
<g id="Group 120">
<path id="Vector" d="M22.5 27.5C22.5 29.4891 23.2902 31.3968 24.6967 32.8033C26.1032 34.2098 28.0109 35 30 35C31.9891 35 33.8968 34.2098 35.3033 32.8033C36.7098 31.3968 37.5 29.4891 37.5 27.5C37.5 25.5109 36.7098 23.6032 35.3033 22.1967C33.8968 20.7902 31.9891 20 30 20C28.0109 20 26.1032 20.7902 24.6967 22.1967C23.2902 23.6032 22.5 25.5109 22.5 27.5Z" stroke="#0A1D35" stroke-width="2" stroke-linecap="round" stroke-linejoin="round"/>
<path id="Vector_2" d="M44.1425 41.6427L33.535 52.2502C32.5975 53.1868 31.3265 53.7129 30.0013 53.7129C28.6761 53.7129 27.405 53.1868 26.4675 52.2502L15.8575 41.6427C13.0606 38.8457 11.1558 35.282 10.3842 31.4024C9.61261 27.5228 10.0087 23.5015 11.5225 19.8471C13.0363 16.1926 15.5998 13.0691 18.8887 10.8715C22.1777 8.67393 26.0444 7.50098 30 7.50098C33.9556 7.50098 37.8223 8.67393 41.1113 10.8715C44.4003 13.0691 46.9637 16.1926 48.4775 19.8471C49.9913 23.5015 50.3874 27.5228 49.6158 31.4024C48.8442 35.282 46.9395 38.8457 44.1425 41.6427Z" stroke="#0A1D35" stroke-width="2" stroke-linecap="round" stroke-linejoin="round"/>
</g>
</g>
</g>
</svg>
