<svg width="188" height="110" viewBox="0 0 188 110" fill="none" xmlns="http://www.w3.org/2000/svg">
<path fill-rule="evenodd" clip-rule="evenodd" d="M182 3C182 4.65686 183.343 6 185 6C186.657 6 188 4.65686 188 3C188 1.34314 186.657 -5.87105e-08 185 -1.31134e-07C183.343 -2.03558e-07 182 1.34314 182 3ZM156 3C156 4.65686 157.343 6 159 6C160.657 6 162 4.65686 162 3C162 1.34314 160.657 -1.19521e-06 159 -1.26763e-06C157.343 -1.34005e-06 156 1.34314 156 3ZM133 6C131.343 6 130 4.65686 130 3C130 1.34314 131.343 -2.47655e-06 133 -2.40413e-06C134.657 -2.3317e-06 136 1.34314 136 3C136 4.65686 134.657 6 133 6ZM104 3C104 4.65686 105.343 6 107 6C108.657 6 110 4.65686 110 3C110 1.34314 108.657 -3.4682e-06 107 -3.54062e-06C105.343 -3.61305e-06 104 1.34314 104 3ZM81 6C79.3431 6 78 4.65686 78 3C78 1.34313 79.3431 -4.74954e-06 81 -4.67712e-06C82.6569 -4.60469e-06 84 1.34314 84 3C84 4.65686 82.6569 6 81 6ZM52 2.99999C52 4.65685 53.3431 5.99999 55 5.99999C56.6569 5.99999 58 4.65685 58 2.99999C58 1.34313 56.6569 -5.74119e-06 55 -5.81361e-06C53.3431 -5.88604e-06 52 1.34313 52 2.99999ZM29 5.99999C27.3431 5.99999 26 4.65685 26 2.99999C26 1.34313 27.3431 -7.02253e-06 29 -6.95011e-06C30.6569 -6.87769e-06 32 1.34313 32 2.99999C32 4.65685 30.6569 5.99999 29 5.99999ZM-1.31134e-07 2.99999C-2.03558e-07 4.65685 1.34314 5.99999 3 5.99999C4.65686 5.99999 6 4.65685 6 2.99999C6 1.34313 4.65686 -8.01418e-06 3 -8.08661e-06C1.34314 -8.15903e-06 -5.87105e-08 1.34313 -1.31134e-07 2.99999ZM185 32C183.343 32 182 30.6569 182 29C182 27.3431 183.343 26 185 26C186.657 26 188 27.3431 188 29C188 30.6569 186.657 32 185 32ZM156 29C156 30.6569 157.343 32 159 32C160.657 32 162 30.6569 162 29C162 27.3431 160.657 26 159 26C157.343 26 156 27.3431 156 29ZM133 32C131.343 32 130 30.6569 130 29C130 27.3431 131.343 26 133 26C134.657 26 136 27.3431 136 29C136 30.6569 134.657 32 133 32ZM104 29C104 30.6569 105.343 32 107 32C108.657 32 110 30.6569 110 29C110 27.3431 108.657 26 107 26C105.343 26 104 27.3431 104 29ZM81 32C79.3431 32 78 30.6569 78 29C78 27.3431 79.3431 26 81 26C82.6569 26 84 27.3431 84 29C84 30.6569 82.6569 32 81 32ZM52 29C52 30.6569 53.3431 32 55 32C56.6569 32 58 30.6569 58 29C58 27.3431 56.6569 26 55 26C53.3431 26 52 27.3431 52 29ZM29 32C27.3431 32 26 30.6569 26 29C26 27.3431 27.3431 26 29 26C30.6569 26 32 27.3431 32 29C32 30.6569 30.6569 32 29 32ZM-1.26763e-06 29C-1.34005e-06 30.6569 1.34314 32 3 32C4.65686 32 6 30.6569 6 29C6 27.3431 4.65686 26 3 26C1.34314 26 -1.19521e-06 27.3431 -1.26763e-06 29ZM185 58C183.343 58 182 56.6569 182 55C182 53.3431 183.343 52 185 52C186.657 52 188 53.3431 188 55C188 56.6569 186.657 58 185 58ZM156 55C156 56.6569 157.343 58 159 58C160.657 58 162 56.6569 162 55C162 53.3431 160.657 52 159 52C157.343 52 156 53.3431 156 55ZM133 58C131.343 58 130 56.6569 130 55C130 53.3431 131.343 52 133 52C134.657 52 136 53.3431 136 55C136 56.6569 134.657 58 133 58ZM104 55C104 56.6569 105.343 58 107 58C108.657 58 110 56.6569 110 55C110 53.3431 108.657 52 107 52C105.343 52 104 53.3431 104 55ZM81 58C79.3431 58 78 56.6569 78 55C78 53.3431 79.3431 52 81 52C82.6569 52 84 53.3431 84 55C84 56.6569 82.6569 58 81 58ZM52 55C52 56.6569 53.3431 58 55 58C56.6569 58 58 56.6569 58 55C58 53.3431 56.6569 52 55 52C53.3431 52 52 53.3431 52 55ZM29 58C27.3431 58 26 56.6569 26 55C26 53.3431 27.3431 52 29 52C30.6569 52 32 53.3431 32 55C32 56.6569 30.6569 58 29 58ZM-2.40413e-06 55C-2.47655e-06 56.6569 1.34314 58 3 58C4.65686 58 6 56.6569 6 55C6 53.3431 4.65686 52 3 52C1.34314 52 -2.3317e-06 53.3431 -2.40413e-06 55ZM185 84C183.343 84 182 82.6569 182 81C182 79.3431 183.343 78 185 78C186.657 78 188 79.3431 188 81C188 82.6569 186.657 84 185 84ZM156 81C156 82.6569 157.343 84 159 84C160.657 84 162 82.6569 162 81C162 79.3431 160.657 78 159 78C157.343 78 156 79.3431 156 81ZM133 84C131.343 84 130 82.6569 130 81C130 79.3431 131.343 78 133 78C134.657 78 136 79.3431 136 81C136 82.6569 134.657 84 133 84ZM104 81C104 82.6569 105.343 84 107 84C108.657 84 110 82.6569 110 81C110 79.3431 108.657 78 107 78C105.343 78 104 79.3431 104 81ZM81 84C79.3431 84 78 82.6569 78 81C78 79.3431 79.3431 78 81 78C82.6569 78 84 79.3431 84 81C84 82.6569 82.6569 84 81 84ZM52 81C52 82.6569 53.3431 84 55 84C56.6569 84 58 82.6569 58 81C58 79.3431 56.6569 78 55 78C53.3431 78 52 79.3431 52 81ZM29 84C27.3431 84 26 82.6569 26 81C26 79.3431 27.3431 78 29 78C30.6569 78 32 79.3431 32 81C32 82.6569 30.6569 84 29 84ZM-3.54062e-06 81C-3.61305e-06 82.6569 1.34314 84 3 84C4.65686 84 6 82.6569 6 81C6 79.3431 4.65686 78 3 78C1.34314 78 -3.4682e-06 79.3431 -3.54062e-06 81ZM185 110C183.343 110 182 108.657 182 107C182 105.343 183.343 104 185 104C186.657 104 188 105.343 188 107C188 108.657 186.657 110 185 110ZM156 107C156 108.657 157.343 110 159 110C160.657 110 162 108.657 162 107C162 105.343 160.657 104 159 104C157.343 104 156 105.343 156 107ZM133 110C131.343 110 130 108.657 130 107C130 105.343 131.343 104 133 104C134.657 104 136 105.343 136 107C136 108.657 134.657 110 133 110ZM104 107C104 108.657 105.343 110 107 110C108.657 110 110 108.657 110 107C110 105.343 108.657 104 107 104C105.343 104 104 105.343 104 107ZM81 110C79.3431 110 78 108.657 78 107C78 105.343 79.3431 104 81 104C82.6569 104 84 105.343 84 107C84 108.657 82.6569 110 81 110ZM52 107C52 108.657 53.3431 110 55 110C56.6569 110 58 108.657 58 107C58 105.343 56.6569 104 55 104C53.3431 104 52 105.343 52 107ZM29 110C27.3431 110 26 108.657 26 107C26 105.343 27.3431 104 29 104C30.6569 104 32 105.343 32 107C32 108.657 30.6569 110 29 110ZM-4.67712e-06 107C-4.74954e-06 108.657 1.34313 110 3 110C4.65686 110 6 108.657 6 107C6 105.343 4.65686 104 3 104C1.34314 104 -4.60469e-06 105.343 -4.67712e-06 107Z" fill="#94B0D5"/>
</svg>
