<svg width="110" height="188" viewBox="0 0 110 188" fill="none" xmlns="http://www.w3.org/2000/svg">
<path fill-rule="evenodd" clip-rule="evenodd" d="M3 6C4.65686 6 6 4.65686 6 3C6 1.34314 4.65686 0 3 0C1.34314 0 0 1.34314 0 3C0 4.65686 1.34314 6 3 6ZM3 32C4.65686 32 6 30.6569 6 29C6 27.3431 4.65686 26 3 26C1.34314 26 0 27.3431 0 29C0 30.6569 1.34314 32 3 32ZM6 55C6 56.6569 4.65686 58 3 58C1.34314 58 0 56.6569 0 55C0 53.3431 1.34314 52 3 52C4.65686 52 6 53.3431 6 55ZM3 84C4.65686 84 6 82.6569 6 81C6 79.3431 4.65686 78 3 78C1.34314 78 0 79.3431 0 81C0 82.6569 1.34314 84 3 84ZM6 107C6 108.657 4.65686 110 3 110C1.34314 110 0 108.657 0 107C0 105.343 1.34314 104 3 104C4.65686 104 6 105.343 6 107ZM3 136C4.65686 136 6 134.657 6 133C6 131.343 4.65686 130 3 130C1.34314 130 0 131.343 0 133C0 134.657 1.34314 136 3 136ZM6 159C6 160.657 4.65686 162 3 162C1.34314 162 0 160.657 0 159C0 157.343 1.34314 156 3 156C4.65686 156 6 157.343 6 159ZM3 188C4.65686 188 6 186.657 6 185C6 183.343 4.65686 182 3 182C1.34314 182 0 183.343 0 185C0 186.657 1.34314 188 3 188ZM32 3C32 4.65686 30.6569 6 29 6C27.3431 6 26 4.65686 26 3C26 1.34314 27.3431 0 29 0C30.6569 0 32 1.34314 32 3ZM29 32C30.6569 32 32 30.6569 32 29C32 27.3431 30.6569 26 29 26C27.3431 26 26 27.3431 26 29C26 30.6569 27.3431 32 29 32ZM32 55C32 56.6569 30.6569 58 29 58C27.3431 58 26 56.6569 26 55C26 53.3431 27.3431 52 29 52C30.6569 52 32 53.3431 32 55ZM29 84C30.6569 84 32 82.6569 32 81C32 79.3431 30.6569 78 29 78C27.3431 78 26 79.3431 26 81C26 82.6569 27.3431 84 29 84ZM32 107C32 108.657 30.6569 110 29 110C27.3431 110 26 108.657 26 107C26 105.343 27.3431 104 29 104C30.6569 104 32 105.343 32 107ZM29 136C30.6569 136 32 134.657 32 133C32 131.343 30.6569 130 29 130C27.3431 130 26 131.343 26 133C26 134.657 27.3431 136 29 136ZM32 159C32 160.657 30.6569 162 29 162C27.3431 162 26 160.657 26 159C26 157.343 27.3431 156 29 156C30.6569 156 32 157.343 32 159ZM29 188C30.6569 188 32 186.657 32 185C32 183.343 30.6569 182 29 182C27.3431 182 26 183.343 26 185C26 186.657 27.3431 188 29 188ZM58 3C58 4.65686 56.6569 6 55 6C53.3431 6 52 4.65686 52 3C52 1.34314 53.3431 0 55 0C56.6569 0 58 1.34314 58 3ZM55 32C56.6569 32 58 30.6569 58 29C58 27.3431 56.6569 26 55 26C53.3431 26 52 27.3431 52 29C52 30.6569 53.3431 32 55 32ZM58 55C58 56.6569 56.6569 58 55 58C53.3431 58 52 56.6569 52 55C52 53.3431 53.3431 52 55 52C56.6569 52 58 53.3431 58 55ZM55 84C56.6569 84 58 82.6569 58 81C58 79.3431 56.6569 78 55 78C53.3431 78 52 79.3431 52 81C52 82.6569 53.3431 84 55 84ZM58 107C58 108.657 56.6569 110 55 110C53.3431 110 52 108.657 52 107C52 105.343 53.3431 104 55 104C56.6569 104 58 105.343 58 107ZM55 136C56.6569 136 58 134.657 58 133C58 131.343 56.6569 130 55 130C53.3431 130 52 131.343 52 133C52 134.657 53.3431 136 55 136ZM58 159C58 160.657 56.6569 162 55 162C53.3431 162 52 160.657 52 159C52 157.343 53.3431 156 55 156C56.6569 156 58 157.343 58 159ZM55 188C56.6569 188 58 186.657 58 185C58 183.343 56.6569 182 55 182C53.3431 182 52 183.343 52 185C52 186.657 53.3431 188 55 188ZM84 3C84 4.65686 82.6569 6 81 6C79.3431 6 78 4.65686 78 3C78 1.34314 79.3431 0 81 0C82.6569 0 84 1.34314 84 3ZM81 32C82.6569 32 84 30.6569 84 29C84 27.3431 82.6569 26 81 26C79.3431 26 78 27.3431 78 29C78 30.6569 79.3431 32 81 32ZM84 55C84 56.6569 82.6569 58 81 58C79.3431 58 78 56.6569 78 55C78 53.3431 79.3431 52 81 52C82.6569 52 84 53.3431 84 55ZM81 84C82.6569 84 84 82.6569 84 81C84 79.3431 82.6569 78 81 78C79.3431 78 78 79.3431 78 81C78 82.6569 79.3431 84 81 84ZM84 107C84 108.657 82.6569 110 81 110C79.3431 110 78 108.657 78 107C78 105.343 79.3431 104 81 104C82.6569 104 84 105.343 84 107ZM81 136C82.6569 136 84 134.657 84 133C84 131.343 82.6569 130 81 130C79.3431 130 78 131.343 78 133C78 134.657 79.3431 136 81 136ZM84 159C84 160.657 82.6569 162 81 162C79.3431 162 78 160.657 78 159C78 157.343 79.3431 156 81 156C82.6569 156 84 157.343 84 159ZM81 188C82.6569 188 84 186.657 84 185C84 183.343 82.6569 182 81 182C79.3431 182 78 183.343 78 185C78 186.657 79.3431 188 81 188ZM110 3C110 4.65686 108.657 6 107 6C105.343 6 104 4.65686 104 3C104 1.34314 105.343 0 107 0C108.657 0 110 1.34314 110 3ZM107 32C108.657 32 110 30.6569 110 29C110 27.3431 108.657 26 107 26C105.343 26 104 27.3431 104 29C104 30.6569 105.343 32 107 32ZM110 55C110 56.6569 108.657 58 107 58C105.343 58 104 56.6569 104 55C104 53.3431 105.343 52 107 52C108.657 52 110 53.3431 110 55ZM107 84C108.657 84 110 82.6569 110 81C110 79.3431 108.657 78 107 78C105.343 78 104 79.3431 104 81C104 82.6569 105.343 84 107 84ZM110 107C110 108.657 108.657 110 107 110C105.343 110 104 108.657 104 107C104 105.343 105.343 104 107 104C108.657 104 110 105.343 110 107ZM107 136C108.657 136 110 134.657 110 133C110 131.343 108.657 130 107 130C105.343 130 104 131.343 104 133C104 134.657 105.343 136 107 136ZM110 159C110 160.657 108.657 162 107 162C105.343 162 104 160.657 104 159C104 157.343 105.343 156 107 156C108.657 156 110 157.343 110 159ZM107 188C108.657 188 110 186.657 110 185C110 183.343 108.657 182 107 182C105.343 182 104 183.343 104 185C104 186.657 105.343 188 107 188Z" fill="#94B0D5"/>
</svg>
