<svg width="660" height="158" viewBox="0 0 660 158" fill="none" xmlns="http://www.w3.org/2000/svg">
<ellipse cx="328.996" cy="78.9997" rx="325" ry="50" transform="rotate(-5 328.996 78.9997)" stroke="white" stroke-width="2" stroke-linecap="round" stroke-linejoin="round" stroke-dasharray="4 6"/>
<path fill-rule="evenodd" clip-rule="evenodd" d="M638.349 23.7041C637.61 27.0458 636.541 30.6563 635.971 31.7278C634.788 33.9529 631.183 35.5464 624.392 36.8459C621.801 37.342 619.83 37.9825 620.012 38.269C620.194 38.5556 622.329 39.2198 624.755 39.744C631.134 41.1228 634.797 42.6985 635.807 44.4986C636.293 45.3664 637.437 49.0746 638.347 52.7399C640.15 59.9935 640.246 59.9572 642.136 51.3057C643.839 43.5056 645.39 42.0165 653.719 40.1824C657.174 39.4212 660 38.5749 660 38.3009C660 38.0269 657.174 37.1806 653.719 36.4194C645.606 34.6326 643.879 33.0554 642.206 25.9025C641.525 22.9903 640.968 20.1099 640.968 19.502C640.968 18.8933 640.681 18.2232 640.33 18.0122C639.978 17.8011 639.087 20.3624 638.349 23.7041Z" fill="#CA9A67"/>
</svg>
