<svg width="70" height="70" viewBox="0 0 70 70" fill="none" xmlns="http://www.w3.org/2000/svg">
<circle cx="35" cy="35" r="35" fill="#0A1D35"/>
<path fill-rule="evenodd" clip-rule="evenodd" d="M25.1562 16.1094V18.2188H18.0781H11V35.0938V51.9688H18.0781H25.1562V54.0781V56.1875H30.7812H36.4062V55.4844V54.7812H31.4844H26.5625V37.9062V21.0312H35H43.4375V24.5469V28.0625H44.1406H44.8438V26.6562V25.25H51.2188H57.5938V37.9062V50.5625H51.2188H44.8438V40.0156V29.4688H44.1406H43.4375V42.125V54.7812H42.0312H40.625V55.4844V56.1875H42.7344H44.8438V54.0781V51.9688H51.9219H59V35.0938V18.2188H51.9219H44.8438V16.1094V14H35H25.1562V16.1094ZM43.4375 17.5156V19.625H35H26.5625V17.5156V15.4062H35H43.4375V17.5156ZM27.9688 17.5156V18.2188H28.6719H29.375V17.5156V16.8125H28.6719H27.9688V17.5156ZM30.7812 17.5156V18.2188H31.4844H32.1875V17.5156V16.8125H31.4844H30.7812V17.5156ZM25.1562 21.7344V23.8438H20.9375H16.7188V24.5469V25.25H20.9375H25.1562V37.9062V50.5625H18.7812H12.4062V37.9062V25.25H13.8594H15.3125V24.5469V23.8438H13.8594H12.4062V21.7344V19.625H18.7812H25.1562V21.7344ZM57.5938 21.7344V23.8438H51.2188H44.8438V21.7344V19.625H51.2188H57.5938V21.7344ZM13.9062 21.7344V22.4375H14.5625H15.2188V21.7344V21.0312H14.5625H13.9062V21.7344ZM46.3438 21.7344V22.4375H47H47.6562V21.7344V21.0312H47H46.3438V21.7344ZM34.3243 24.5671L34.2969 25.2904L33.9718 25.3834C33.5109 25.5151 32.7925 26.2414 32.6661 26.7031C32.4453 27.5104 32.5992 28.1843 33.1377 28.7685C33.5946 29.2642 34.1435 29.4688 35.0167 29.4688C35.5313 29.4688 35.6929 29.5054 35.8438 29.6562C36.1048 29.9173 36.0905 30.4116 35.8143 30.6712C35.6099 30.8631 35.5088 30.875 34.0799 30.875H32.5625V31.5781V32.2812H33.4531H34.3438V32.9844V33.6875H35H35.6562V32.9815C35.6562 32.3895 35.6828 32.2677 35.8203 32.2279C37.1463 31.8447 37.789 30.4877 37.2265 29.259C36.8418 28.4188 36.2063 28.0625 35.0924 28.0625C34.5974 28.0625 34.4099 28.021 34.2158 27.8682C33.8928 27.6142 33.8857 27.1995 34.1989 26.8864C34.4241 26.6611 34.4611 26.6562 35.9333 26.6562H37.4375V25.9531V25.25H36.5469H35.6562V24.5469V23.8438H35.0039H34.3516L34.3243 24.5671ZM18.125 28.8008C18.125 29.5312 18.1223 29.5396 17.8672 29.5907C17.4347 29.6773 16.8531 30.1695 16.6241 30.6426C16.0676 31.7922 16.6145 33.1235 17.8201 33.5537C18.0136 33.6228 18.4747 33.6811 18.8447 33.6834C19.4638 33.6871 19.5338 33.708 19.7193 33.9438C19.9614 34.2516 19.9158 34.6794 19.6143 34.9297C19.4439 35.0713 19.2057 35.0938 17.8802 35.0938H16.3438V35.7969V36.5H17.2344H18.125V37.2031V37.9062H18.8281H19.5312V37.1562C19.5312 36.5435 19.5577 36.4062 19.6756 36.4062C19.8943 36.4062 20.4896 36.0775 20.7221 35.8282C21.4356 35.0633 21.373 33.5522 20.5977 32.8253C20.19 32.443 19.7091 32.2812 18.9794 32.2812C18.18 32.2812 18.0627 32.239 17.8798 31.8853C17.7609 31.6553 17.7554 31.5569 17.8492 31.3305C17.9119 31.1792 18.039 31.0148 18.1317 30.9652C18.2244 30.9156 18.9779 30.875 19.8063 30.875H21.3125V30.1719V29.4688H20.4219H19.5312V28.7656V28.0625H18.8281H18.125V28.8008ZM50.4688 28.8051V29.5476L50.177 29.6117C49.7897 29.6967 49.1686 30.268 48.9562 30.7344C48.4468 31.8529 49.0996 33.2548 50.2887 33.5959C50.4644 33.6462 50.8902 33.6875 51.2348 33.6875C51.8001 33.6875 51.8804 33.7117 52.0557 33.9345C52.1625 34.0704 52.25 34.2756 52.25 34.3906C52.25 34.5057 52.1625 34.7109 52.0557 34.8467L51.8614 35.0938H50.3213H48.7812V35.7969V36.5H49.625H50.4688V37.2031V37.9062H51.1679H51.8671L51.8945 37.1941L51.9219 36.482L52.2861 36.357C53.2098 36.0403 53.7869 34.9765 53.578 33.9756C53.3389 32.8307 52.6049 32.2839 51.3054 32.2822C50.6849 32.2813 50.5694 32.2539 50.3913 32.0643C50.1029 31.7573 50.1221 31.3151 50.4345 31.0693C50.6608 30.8913 50.8062 30.875 52.1689 30.875H53.6562V30.1719V29.4688H52.7656H51.875V28.7656V28.0625H51.1719H50.4688V28.8051ZM29.375 38.6094V39.3125H35H40.625V38.6094V37.9062H35H29.375V38.6094ZM15.3125 42.8281V43.5312H18.8281H22.3438V42.8281V42.125H18.8281H15.3125V42.8281ZM29.375 42.8281V43.5312H35H40.625V42.8281V42.125H35H29.375V42.8281ZM47.6562 42.8281V43.5312H51.1719H54.6875V42.8281V42.125H51.1719H47.6562V42.8281ZM15.3125 47.0469V47.75H16.0156H16.7188V47.0469V46.3438H16.0156H15.3125V47.0469ZM18.125 47.0469V47.75H18.8281H19.5312V47.0469V46.3438H18.8281H18.125V47.0469ZM29.375 47.0469V47.75H35H40.625V47.0469V46.3438H35H29.375V47.0469ZM47.6562 47.0469V47.75H48.3594H49.0625V47.0469V46.3438H48.3594H47.6562V47.0469ZM50.4688 47.0469V47.75H51.1719H51.875V47.0469V46.3438H51.1719H50.4688V47.0469ZM29.375 51.2656V51.9688H30.0781H30.7812V51.2656V50.5625H30.0781H29.375V51.2656ZM32.1875 51.2656V51.9688H32.8906H33.5938V51.2656V50.5625H32.8906H32.1875V51.2656ZM37.8125 55.4844V56.1875H38.5156H39.2188V55.4844V54.7812H38.5156H37.8125V55.4844Z" fill="white"/>
</svg>
