<svg width="24" height="32" viewBox="0 0 24 32" fill="none" xmlns="http://www.w3.org/2000/svg">
<path d="M16.788 15.9996L4 7.47365V24.5256L16.788 15.9996ZM22.752 16.8316L1.554 30.9636C1.40341 31.0639 1.22846 31.1213 1.04778 31.13C0.867105 31.1386 0.687465 31.0981 0.527998 31.0127C0.368531 30.9274 0.235207 30.8003 0.142227 30.6452C0.0492471 30.49 9.34408e-05 30.3125 0 30.1316V1.86765C9.34408e-05 1.68676 0.0492471 1.50929 0.142227 1.35413C0.235207 1.19898 0.368531 1.07194 0.527998 0.986567C0.687465 0.901189 0.867105 0.860663 1.04778 0.869307C1.22846 0.87795 1.40341 0.935438 1.554 1.03565L22.752 15.1676C22.889 15.259 23.0013 15.3827 23.0789 15.5278C23.1566 15.673 23.1972 15.835 23.1972 15.9996C23.1972 16.1643 23.1566 16.3263 23.0789 16.4715C23.0013 16.6166 22.889 16.7403 22.752 16.8316Z" fill="white"/>
</svg>
