<svg width="100" height="4" viewBox="0 0 100 4" fill="none" xmlns="http://www.w3.org/2000/svg">
<path fill-rule="evenodd" clip-rule="evenodd" d="M0 2C0 0.89543 0.860991 0 1.92308 0H4.92788C5.98997 0 6.85096 0.89543 6.85096 2C6.85096 3.10457 5.98997 4 4.92788 4H1.92308C0.860991 4 0 3.10457 0 2ZM9.01442 2C9.01442 0.89543 9.87541 0 10.9375 0H16.9471C18.0092 0 18.8702 0.89543 18.8702 2C18.8702 3.10457 18.0092 4 16.9471 4H10.9375C9.87541 4 9.01442 3.10457 9.01442 2ZM21.0337 2C21.0337 0.89543 21.8946 0 22.9567 0H28.9663C30.0284 0 30.8894 0.89543 30.8894 2C30.8894 3.10457 30.0284 4 28.9663 4H22.9567C21.8946 4 21.0337 3.10457 21.0337 2ZM33.0529 2C33.0529 0.89543 33.9139 0 34.976 0H40.9856C42.0477 0 42.9087 0.89543 42.9087 2C42.9087 3.10457 42.0477 4 40.9856 4H34.976C33.9139 4 33.0529 3.10457 33.0529 2ZM45.0721 2C45.0721 0.89543 45.9331 0 46.9952 0H53.0048C54.0669 0 54.9279 0.89543 54.9279 2C54.9279 3.10457 54.0669 4 53.0048 4H46.9952C45.9331 4 45.0721 3.10457 45.0721 2ZM57.0913 2C57.0913 0.89543 57.9523 0 59.0144 0H65.024C66.0861 0 66.9471 0.89543 66.9471 2C66.9471 3.10457 66.0861 4 65.024 4H59.0144C57.9523 4 57.0913 3.10457 57.0913 2ZM69.1106 2C69.1106 0.89543 69.9716 0 71.0337 0H77.0433C78.1054 0 78.9663 0.89543 78.9663 2C78.9663 3.10457 78.1054 4 77.0433 4H71.0337C69.9716 4 69.1106 3.10457 69.1106 2ZM81.1298 2C81.1298 0.89543 81.9908 0 83.0529 0H89.0625C90.1246 0 90.9856 0.89543 90.9856 2C90.9856 3.10457 90.1246 4 89.0625 4H83.0529C81.9908 4 81.1298 3.10457 81.1298 2ZM93.149 2C93.149 0.89543 94.01 0 95.0721 0H98.0769C99.139 0 100 0.89543 100 2C100 3.10457 99.139 4 98.0769 4H95.0721C94.01 4 93.149 3.10457 93.149 2Z" fill="#CA9A67"/>
</svg>
